<svg xmlns="http://www.w3.org/2000/svg" width="44" height="44" viewBox="0 0 44 44">
  <g id="facebook" transform="translate(-1658 -5060.432)">
    <path id="facebook-2" data-name="facebook" d="M44,22A22,22,0,1,0,22,44c.129,0,.258,0,.387-.005V26.869H17.66V21.361h4.727V17.307c0-4.7,2.87-7.26,7.063-7.26a38.908,38.908,0,0,1,4.237.217v4.913H30.8c-2.281,0-2.723,1.084-2.723,2.675v3.508h5.455l-.711,5.508H28.073V43.15A22.012,22.012,0,0,0,44,22Zm0,0" transform="translate(1658 5060.432)"/>
    <path id="Контур_76574" data-name="Контур 76574" d="M265.58,511.43q-.343.022-.69.034Q265.237,511.453,265.58,511.43Zm0,0" transform="translate(1415.874 4592.953)"/>
    <path id="Контур_76575" data-name="Контур 76575" d="M260.869,511.836q-.182.006-.365.009Q260.687,511.842,260.869,511.836Zm0,0" transform="translate(1419.883 4592.582)"/>
    <path id="Контур_76566" data-name="Контур 76566" d="M291.407,508.668q-.275.045-.552.083Q291.132,508.713,291.407,508.668Zm0,0" transform="translate(1392.14 4595.478)"/>
    <path id="Контур_76567" data-name="Контур 76567" d="M299.6,507.793l-.263.046Zm0,0" transform="translate(1384.385 4596.277)"/>
    <path id="Контур_76568" data-name="Контур 76568" d="M278.257,510.34q-.322.036-.647.064Q277.934,510.377,278.257,510.34Zm0,0" transform="translate(1404.248 4593.949)"/>
    <path id="Контур_76569" data-name="Контур 76569" d="M286.756,509.738l-.31.039Zm0,0" transform="translate(1396.171 4594.499)"/>
    <path id="Контур_76570" data-name="Контур 76570" d="M306.9,506.41l-.232.049Zm0,0" transform="translate(1377.69 4597.541)"/>
    <path id="Контур_76565" data-name="Контур 76565" d="M324.672,502.113l-.187.052Zm0,0" transform="translate(1361.401 4601.469)"/>
    <path id="Контур_76571" data-name="Контур 76571" d="M319.263,503.543l-.2.053Zm0,0" transform="translate(1366.36 4600.162)"/>
    <path id="Контур_76572" data-name="Контур 76572" d="M312.283,505.254l-.217.049Zm0,0" transform="translate(1372.752 4598.598)"/>
    <path id="Контур_76573" data-name="Контур 76573" d="M273.828,511.09q-.174.015-.348.026Q273.654,511.1,273.828,511.09Zm0,0" transform="translate(1408.022 4593.264)"/>
  </g>
</svg>
